<svg xmlns="http://www.w3.org/2000/svg" xmlns:xlink="http://www.w3.org/1999/xlink" id="terminal" baseProfile="full" viewBox="0 0 496 529" width="496" version="1.1">
    <defs>
        <termtosvg:template_settings xmlns:termtosvg="https://github.com/nbedos/termtosvg">
            <termtosvg:screen_geometry columns="62" rows="31"/>
            <termtosvg:animation type="css"/>
        </termtosvg:template_settings>
        <style type="text/css" id="generated-style"><![CDATA[#screen {
                font-family: 'DejaVu Sans Mono', monospace;
                font-style: normal;
                font-size: 14px;
            }

        text {
            dominant-baseline: text-before-edge;
            white-space: pre;
        }
    
            :root {
                --animation-duration: 18020ms;
            }

            @keyframes roll {
                0.000%{transform:translateY(0px)}
0.572%{transform:translateY(-544px)}
0.610%{transform:translateY(-1088px)}
4.340%{transform:translateY(-1632px)}
7.569%{transform:translateY(-2176px)}
16.360%{transform:translateY(-2720px)}
18.968%{transform:translateY(-3264px)}
21.054%{transform:translateY(-3808px)}
22.908%{transform:translateY(-4352px)}
25.017%{transform:translateY(-4896px)}
26.509%{transform:translateY(-5440px)}
28.996%{transform:translateY(-5984px)}
36.282%{transform:translateY(-6528px)}
40.211%{transform:translateY(-7072px)}
44.667%{transform:translateY(-7616px)}
51.299%{transform:translateY(-8160px)}
52.819%{transform:translateY(-8704px)}
58.102%{transform:translateY(-9248px)}
60.416%{transform:translateY(-9792px)}
62.614%{transform:translateY(-10336px)}
64.317%{transform:translateY(-10880px)}
69.129%{transform:translateY(-11424px)}
69.223%{transform:translateY(-11968px)}
69.267%{transform:translateY(-12512px)}
69.556%{transform:translateY(-13056px)}
69.584%{transform:translateY(-13600px)}
70.172%{transform:translateY(-14144px)}
70.444%{transform:translateY(-14688px)}
94.451%{transform:translateY(-15232px)}
100.000%{transform:translateY(-15232px)}
            }

            #screen_view {
                animation-duration: 18020ms;
                animation-iteration-count:infinite;
                animation-name:roll;
                animation-timing-function: steps(1,end);
                animation-fill-mode: forwards;
            }
        ]]></style>
        <style type="text/css" id="user-style">
            /* The colors defined below are the default 16 colors used for rendering text of the terminal. Adjust
               them as needed.
               PowerShell colors based on https://en.wikipedia.org/wiki/ANSI_escape_code#Colors */
            .foreground {fill: #cccccc;}
            .background {fill: #0c0c0c;}
            .color0 {fill: #0c0c0c;}
            .color1 {fill: #c50f1f;}
            .color2 {fill: #13a10e;}
            .color3 {fill: #c19c00;}
            .color4 {fill: #0037da;}
            .color5 {fill: #881798;}
            .color6 {fill: #3a96dd;}
            .color7 {fill: #cccccc;}
            .color8 {fill: #767676;}
            .color9 {fill: #e74856;}
            .color10 {fill: #16c60c;}
            .color11 {fill: #f9f1a5;}
            .color12 {fill: #3b78ff;}
            .color13 {fill: #b4009e;}
            .color14 {fill: #61d6d6;}
            .color15 {fill: #f2f2f2;}
        </style>
    </defs>
    <svg id="screen" width="496" height="527" viewBox="0 0 496 527" preserveAspectRatio="xMidYMin slice">
    <rect class="background" height="100%" width="100%" x="0" y="0"/><defs><g id="g1"><text x="0" textLength="8" class="background"> </text><text x="8" textLength="488" class="foreground">                                                             </text></g><g id="g2"><text x="0" textLength="24" class="color0"> ~ </text><text x="24" textLength="8" class="color4">&#57520;</text><text x="32" textLength="8" class="foreground"> </text><text x="40" textLength="8" class="background"> </text><text x="48" textLength="448" class="foreground">                                                        </text></g><g id="g3"><text x="0" textLength="24" class="color0"> ~ </text><text x="24" textLength="8" class="color4">&#57520;</text><text x="32" textLength="8" class="foreground"> </text><text x="40" textLength="8" text-decoration="underline" class="foreground">i</text><text x="48" textLength="8" class="background">f</text><text x="56" textLength="128" font-weight="bold" class="color8">config | ag inet</text><text x="184" textLength="312" class="foreground">                                       </text></g><g id="g4"><text x="0" textLength="24" class="color0"> ~ </text><text x="24" textLength="8" class="color4">&#57520;</text><text x="32" textLength="8" class="foreground"> </text><text x="40" textLength="16" font-weight="bold" class="color11">if</text><text x="56" textLength="8" class="background">c</text><text x="64" textLength="120" font-weight="bold" class="color8">onfig | ag inet</text><text x="184" textLength="312" class="foreground">                                       </text></g><g id="g5"><text x="0" textLength="24" class="color0"> ~ </text><text x="24" textLength="8" class="color4">&#57520;</text><text x="32" textLength="8" class="foreground"> </text><text x="40" textLength="24" font-weight="bold" class="color9">ifc</text><text x="64" textLength="8" class="background">o</text><text x="72" textLength="112" font-weight="bold" class="color8">nfig | ag inet</text><text x="184" textLength="312" class="foreground">                                       </text></g><g id="g6"><text x="0" textLength="24" class="color0"> ~ </text><text x="24" textLength="8" class="color4">&#57520;</text><text x="32" textLength="8" class="foreground"> </text><text x="40" textLength="32" font-weight="bold" class="color9">ifco</text><text x="72" textLength="8" class="background">n</text><text x="80" textLength="104" font-weight="bold" class="color8">fig | ag inet</text><text x="184" textLength="312" class="foreground">                                       </text></g><g id="g7"><text x="0" textLength="24" class="color0"> ~ </text><text x="24" textLength="8" class="color4">&#57520;</text><text x="32" textLength="8" class="foreground"> </text><text x="40" textLength="40" font-weight="bold" class="color9">ifcon</text><text x="80" textLength="8" class="background">f</text><text x="88" textLength="96" font-weight="bold" class="color8">ig | ag inet</text><text x="184" textLength="312" class="foreground">                                       </text></g><g id="g8"><text x="0" textLength="24" class="color0"> ~ </text><text x="24" textLength="8" class="color4">&#57520;</text><text x="32" textLength="8" class="foreground"> </text><text x="40" textLength="48" font-weight="bold" class="color9">ifconf</text><text x="88" textLength="8" class="background">i</text><text x="96" textLength="88" font-weight="bold" class="color8">g | ag inet</text><text x="184" textLength="312" class="foreground">                                       </text></g><g id="g9"><text x="0" textLength="24" class="color0"> ~ </text><text x="24" textLength="8" class="color4">&#57520;</text><text x="32" textLength="8" class="foreground"> </text><text x="40" textLength="56" font-weight="bold" class="color9">ifconfi</text><text x="96" textLength="8" class="background">g</text><text x="104" textLength="80" font-weight="bold" class="color8"> | ag inet</text><text x="184" textLength="312" class="foreground">                                       </text></g><g id="g10"><text x="0" textLength="24" class="color0"> ~ </text><text x="24" textLength="8" class="color4">&#57520;</text><text x="32" textLength="8" class="foreground"> </text><text x="40" textLength="64" class="color2">ifconfig</text><text x="104" textLength="8" class="background"> </text><text x="112" textLength="72" font-weight="bold" class="color8">| ag inet</text><text x="184" textLength="312" class="foreground">                                       </text></g><g id="g11"><text x="0" textLength="24" class="color0"> ~ </text><text x="24" textLength="8" class="color4">&#57520;</text><text x="32" textLength="8" class="foreground"> </text><text x="40" textLength="64" class="color2">ifconfig</text><text x="104" textLength="8" class="foreground"> </text><text x="112" textLength="8" class="background">|</text><text x="120" textLength="64" font-weight="bold" class="color8"> ag inet</text><text x="184" textLength="312" class="foreground">                                       </text></g><g id="g12"><text x="0" textLength="24" class="color0"> ~ </text><text x="24" textLength="8" class="color4">&#57520;</text><text x="32" textLength="8" class="foreground"> </text><text x="40" textLength="64" class="color2">ifconfig</text><text x="104" textLength="16" class="foreground"> |</text><text x="120" textLength="8" class="background"> </text><text x="128" textLength="56" font-weight="bold" class="color8">ag inet</text><text x="184" textLength="312" class="foreground">                                       </text></g><g id="g13"><text x="0" textLength="24" class="color0"> ~ </text><text x="24" textLength="8" class="color4">&#57520;</text><text x="32" textLength="8" class="foreground"> </text><text x="40" textLength="64" class="color2">ifconfig</text><text x="104" textLength="24" class="foreground"> | </text><text x="128" textLength="8" class="background">a</text><text x="136" textLength="48" font-weight="bold" class="color8">g inet</text><text x="184" textLength="312" class="foreground">                                       </text></g><g id="g14"><text x="0" textLength="24" class="color0"> ~ </text><text x="24" textLength="8" class="color4">&#57520;</text><text x="32" textLength="8" class="foreground"> </text><text x="40" textLength="64" class="color2">ifconfig</text><text x="104" textLength="24" class="foreground"> | </text><text x="128" textLength="8" text-decoration="underline" class="foreground">a</text><text x="136" textLength="8" class="background">g</text><text x="144" textLength="40" font-weight="bold" class="color8"> inet</text><text x="184" textLength="312" class="foreground">                                       </text></g><g id="g15"><text x="0" textLength="24" class="color0"> ~ </text><text x="24" textLength="8" class="color4">&#57520;</text><text x="32" textLength="8" class="foreground"> </text><text x="40" textLength="64" class="color2">ifconfig</text><text x="104" textLength="24" class="foreground"> | </text><text x="128" textLength="16" class="color2">ag</text><text x="144" textLength="8" class="background"> </text><text x="152" textLength="32" font-weight="bold" class="color8">inet</text><text x="184" textLength="312" class="foreground">                                       </text></g><g id="g16"><text x="0" textLength="24" class="color0"> ~ </text><text x="24" textLength="8" class="color4">&#57520;</text><text x="32" textLength="8" class="foreground"> </text><text x="40" textLength="64" class="color2">ifconfig</text><text x="104" textLength="24" class="foreground"> | </text><text x="128" textLength="16" class="color2">ag</text><text x="144" textLength="8" class="foreground"> </text><text x="152" textLength="8" class="background">i</text><text x="160" textLength="24" font-weight="bold" class="color8">net</text><text x="184" textLength="312" class="foreground">                                       </text></g><g id="g17"><text x="0" textLength="24" class="color0"> ~ </text><text x="24" textLength="8" class="color4">&#57520;</text><text x="32" textLength="8" class="foreground"> </text><text x="40" textLength="64" class="color2">ifconfig</text><text x="104" textLength="24" class="foreground"> | </text><text x="128" textLength="16" class="color2">ag</text><text x="144" textLength="8" class="foreground"> </text><text x="152" textLength="8" text-decoration="underline" class="foreground">i</text><text x="160" textLength="8" class="background">n</text><text x="168" textLength="16" font-weight="bold" class="color8">et</text><text x="184" textLength="312" class="foreground">                                       </text></g><g id="g18"><text x="0" textLength="24" class="color0"> ~ </text><text x="24" textLength="8" class="color4">&#57520;</text><text x="32" textLength="8" class="foreground"> </text><text x="40" textLength="64" class="color2">ifconfig</text><text x="104" textLength="24" class="foreground"> | </text><text x="128" textLength="16" class="color2">ag</text><text x="144" textLength="8" class="foreground"> </text><text x="152" textLength="16" text-decoration="underline" class="foreground">in</text><text x="168" textLength="8" class="background">e</text><text x="176" textLength="8" font-weight="bold" class="color8">t</text><text x="184" textLength="312" class="foreground">                                       </text></g><g id="g19"><text x="0" textLength="24" class="color0"> ~ </text><text x="24" textLength="8" class="color4">&#57520;</text><text x="32" textLength="8" class="foreground"> </text><text x="40" textLength="64" class="color2">ifconfig</text><text x="104" textLength="24" class="foreground"> | </text><text x="128" textLength="16" class="color2">ag</text><text x="144" textLength="32" class="foreground"> ine</text><text x="176" textLength="8" class="background">t</text><text x="184" textLength="312" class="foreground">                                       </text></g><g id="g20"><text x="0" textLength="24" class="color0"> ~ </text><text x="24" textLength="8" class="color4">&#57520;</text><text x="32" textLength="8" class="foreground"> </text><text x="40" textLength="64" class="color2">ifconfig</text><text x="104" textLength="24" class="foreground"> | </text><text x="128" textLength="16" class="color2">ag</text><text x="144" textLength="40" class="foreground"> inet</text><text x="184" textLength="8" class="background"> </text><text x="192" textLength="304" class="foreground">                                      </text></g><g id="g21"><text x="0" textLength="24" class="color0"> ~ </text><text x="24" textLength="8" class="color4">&#57520;</text><text x="32" textLength="8" class="foreground"> </text><text x="40" textLength="64" class="color2">ifconfig</text><text x="104" textLength="24" class="foreground"> | </text><text x="128" textLength="16" class="color2">ag</text><text x="144" textLength="352" class="foreground"> inet                                       </text></g><g id="g22"><text x="0" textLength="8" class="background"> </text></g><g id="g23"><text x="0" textLength="64" class="foreground">        </text><text x="64" textLength="32" class="color0">inet</text><text x="96" textLength="400" class="foreground">6 fe80::ca5:43ff:fec9:460d  prefixlen 64  scopeid </text></g><g id="g24"><text x="0" textLength="80" class="foreground">0x20&lt;link&gt;</text></g><g id="g25"><text x="0" textLength="64" class="foreground">        </text><text x="64" textLength="32" class="color0">inet</text><text x="96" textLength="400" class="foreground"> 127.0.0.1  netmask 255.0.0.0                     </text></g><g id="g26"><text x="0" textLength="64" class="foreground">        </text><text x="64" textLength="32" class="color0">inet</text><text x="96" textLength="400" class="foreground">6 ::1  prefixlen 128  scopeid 0x10&lt;host&gt;          </text></g><g id="g27"><text x="0" textLength="64" class="foreground">        </text><text x="64" textLength="32" class="color0">inet</text><text x="96" textLength="400" class="foreground">6 fe80::73ac:edbc:de39:f953  prefixlen 64  scopeid</text></g><g id="g28"><text x="0" textLength="88" class="foreground"> 0x20&lt;link&gt;</text></g><g id="g29"><text x="0" textLength="64" class="foreground">        </text><text x="64" textLength="32" class="color0">inet</text><text x="96" textLength="400" class="foreground">6 2408:8556:2c13:df88:c64a:cba1:7631:56b3  prefixl</text></g><g id="g30"><text x="0" textLength="208" class="foreground">en 64  scopeid 0x0&lt;global&gt;</text></g><g id="g31"><text x="0" textLength="64" class="foreground">        </text><text x="64" textLength="32" class="color0">inet</text><text x="96" textLength="400" class="foreground">6 fe80::c64a:cba1:7631:56b3  prefixlen 64  scopeid</text></g><g id="g32"><text x="0" textLength="64" class="foreground">        </text><text x="64" textLength="32" class="color0">inet</text><text x="96" textLength="400" class="foreground"> 10.37.82.63  netmask 255.255.255.128             </text></g><g id="g33"><text x="0" textLength="64" class="foreground">        </text><text x="64" textLength="32" class="color0">inet</text><text x="96" textLength="400" class="foreground">6 2408:805f:e305:35e0:afad:f428:bc67:f27d  prefixl</text></g><g id="g34"><text x="0" textLength="64" class="foreground">        </text><text x="64" textLength="32" class="color0">inet</text><text x="96" textLength="400" class="foreground">6 fe80::afad:f428:bc67:f27d  prefixlen 64  scopeid</text></g><g id="g35"><text x="0" textLength="24" class="color0"> ~ </text><text x="24" textLength="8" class="color4">&#57520;</text><text x="32" textLength="464" class="foreground">                                                          </text></g></defs><g id="screen_view"><g><rect x="0" y="0" width="8" height="17" class="foreground"/><use xlink:href="#g1" y="0"/></g><g><rect x="0" y="544" width="24" height="17" class="color4"/><rect x="40" y="544" width="8" height="17" class="foreground"/><use xlink:href="#g2" y="544"/></g><g><rect x="0" y="1088" width="24" height="17" class="color4"/><rect x="40" y="1088" width="8" height="17" class="foreground"/><use xlink:href="#g2" y="1088"/></g><g><rect x="0" y="1632" width="24" height="17" class="color4"/><rect x="48" y="1632" width="8" height="17" class="foreground"/><use xlink:href="#g3" y="1632"/></g><g><rect x="0" y="2176" width="24" height="17" class="color4"/><rect x="56" y="2176" width="8" height="17" class="foreground"/><use xlink:href="#g4" y="2176"/></g><g><rect x="0" y="2720" width="24" height="17" class="color4"/><rect x="64" y="2720" width="8" height="17" class="foreground"/><use xlink:href="#g5" y="2720"/></g><g><rect x="0" y="3264" width="24" height="17" class="color4"/><rect x="72" y="3264" width="8" height="17" class="foreground"/><use xlink:href="#g6" y="3264"/></g><g><rect x="0" y="3808" width="24" height="17" class="color4"/><rect x="80" y="3808" width="8" height="17" class="foreground"/><use xlink:href="#g7" y="3808"/></g><g><rect x="0" y="4352" width="24" height="17" class="color4"/><rect x="88" y="4352" width="8" height="17" class="foreground"/><use xlink:href="#g8" y="4352"/></g><g><rect x="0" y="4896" width="24" height="17" class="color4"/><rect x="96" y="4896" width="8" height="17" class="foreground"/><use xlink:href="#g9" y="4896"/></g><g><rect x="0" y="5440" width="24" height="17" class="color4"/><rect x="104" y="5440" width="8" height="17" class="foreground"/><use xlink:href="#g10" y="5440"/></g><g><rect x="0" y="5984" width="24" height="17" class="color4"/><rect x="112" y="5984" width="8" height="17" class="foreground"/><use xlink:href="#g11" y="5984"/></g><g><rect x="0" y="6528" width="24" height="17" class="color4"/><rect x="120" y="6528" width="8" height="17" class="foreground"/><use xlink:href="#g12" y="6528"/></g><g><rect x="0" y="7072" width="24" height="17" class="color4"/><rect x="128" y="7072" width="8" height="17" class="foreground"/><use xlink:href="#g13" y="7072"/></g><g><rect x="0" y="7616" width="24" height="17" class="color4"/><rect x="136" y="7616" width="8" height="17" class="foreground"/><use xlink:href="#g14" y="7616"/></g><g><rect x="0" y="8160" width="24" height="17" class="color4"/><rect x="144" y="8160" width="8" height="17" class="foreground"/><use xlink:href="#g15" y="8160"/></g><g><rect x="0" y="8704" width="24" height="17" class="color4"/><rect x="152" y="8704" width="8" height="17" class="foreground"/><use xlink:href="#g16" y="8704"/></g><g><rect x="0" y="9248" width="24" height="17" class="color4"/><rect x="160" y="9248" width="8" height="17" class="foreground"/><use xlink:href="#g17" y="9248"/></g><g><rect x="0" y="9792" width="24" height="17" class="color4"/><rect x="168" y="9792" width="8" height="17" class="foreground"/><use xlink:href="#g18" y="9792"/></g><g><rect x="0" y="10336" width="24" height="17" class="color4"/><rect x="176" y="10336" width="8" height="17" class="foreground"/><use xlink:href="#g19" y="10336"/></g><g><rect x="0" y="10880" width="24" height="17" class="color4"/><rect x="184" y="10880" width="8" height="17" class="foreground"/><use xlink:href="#g20" y="10880"/></g><g><rect x="0" y="11424" width="24" height="17" class="color4"/><rect x="184" y="11424" width="8" height="17" class="foreground"/><use xlink:href="#g20" y="11424"/></g><g><rect x="0" y="11968" width="24" height="17" class="color4"/><use xlink:href="#g21" y="11968"/><rect x="0" y="11985" width="8" height="17" class="foreground"/><use xlink:href="#g22" y="11985"/></g><g><rect x="0" y="12512" width="24" height="17" class="color4"/><use xlink:href="#g21" y="12512"/><rect x="0" y="12529" width="8" height="17" class="foreground"/><use xlink:href="#g22" y="12529"/></g><g><rect x="0" y="13056" width="24" height="17" class="color4"/><use xlink:href="#g21" y="13056"/><rect x="64" y="13073" width="32" height="17" class="color3"/><use xlink:href="#g23" y="13073"/><use xlink:href="#g24" y="13090"/><rect x="64" y="13107" width="32" height="17" class="color3"/><use xlink:href="#g25" y="13107"/><rect x="64" y="13124" width="32" height="17" class="color3"/><use xlink:href="#g26" y="13124"/><rect x="64" y="13141" width="32" height="17" class="color3"/><use xlink:href="#g27" y="13141"/><use xlink:href="#g28" y="13158"/><rect x="0" y="13175" width="8" height="17" class="foreground"/><use xlink:href="#g22" y="13175"/></g><g><rect x="0" y="13600" width="24" height="17" class="color4"/><use xlink:href="#g21" y="13600"/><rect x="64" y="13617" width="32" height="17" class="color3"/><use xlink:href="#g23" y="13617"/><use xlink:href="#g24" y="13634"/><rect x="64" y="13651" width="32" height="17" class="color3"/><use xlink:href="#g25" y="13651"/><rect x="64" y="13668" width="32" height="17" class="color3"/><use xlink:href="#g26" y="13668"/><rect x="64" y="13685" width="32" height="17" class="color3"/><use xlink:href="#g27" y="13685"/><use xlink:href="#g28" y="13702"/><rect x="64" y="13719" width="32" height="17" class="color3"/><use xlink:href="#g29" y="13719"/><use xlink:href="#g30" y="13736"/><rect x="64" y="13753" width="32" height="17" class="color3"/><use xlink:href="#g31" y="13753"/><use xlink:href="#g28" y="13770"/><rect x="64" y="13787" width="32" height="17" class="color3"/><use xlink:href="#g32" y="13787"/><rect x="64" y="13804" width="32" height="17" class="color3"/><use xlink:href="#g33" y="13804"/><use xlink:href="#g30" y="13821"/><rect x="64" y="13838" width="32" height="17" class="color3"/><use xlink:href="#g34" y="13838"/><use xlink:href="#g28" y="13855"/><rect x="0" y="13872" width="8" height="17" class="foreground"/><use xlink:href="#g1" y="13872"/></g><g><rect x="0" y="14144" width="24" height="17" class="color4"/><use xlink:href="#g21" y="14144"/><rect x="64" y="14161" width="32" height="17" class="color3"/><use xlink:href="#g23" y="14161"/><use xlink:href="#g24" y="14178"/><rect x="64" y="14195" width="32" height="17" class="color3"/><use xlink:href="#g25" y="14195"/><rect x="64" y="14212" width="32" height="17" class="color3"/><use xlink:href="#g26" y="14212"/><rect x="64" y="14229" width="32" height="17" class="color3"/><use xlink:href="#g27" y="14229"/><use xlink:href="#g28" y="14246"/><rect x="64" y="14263" width="32" height="17" class="color3"/><use xlink:href="#g29" y="14263"/><use xlink:href="#g30" y="14280"/><rect x="64" y="14297" width="32" height="17" class="color3"/><use xlink:href="#g31" y="14297"/><use xlink:href="#g28" y="14314"/><rect x="64" y="14331" width="32" height="17" class="color3"/><use xlink:href="#g32" y="14331"/><rect x="64" y="14348" width="32" height="17" class="color3"/><use xlink:href="#g33" y="14348"/><use xlink:href="#g30" y="14365"/><rect x="64" y="14382" width="32" height="17" class="color3"/><use xlink:href="#g34" y="14382"/><use xlink:href="#g28" y="14399"/><rect x="0" y="14416" width="24" height="17" class="color4"/><rect x="40" y="14416" width="8" height="17" class="foreground"/><use xlink:href="#g2" y="14416"/></g><g><rect x="0" y="14688" width="24" height="17" class="color4"/><use xlink:href="#g21" y="14688"/><rect x="64" y="14705" width="32" height="17" class="color3"/><use xlink:href="#g23" y="14705"/><use xlink:href="#g24" y="14722"/><rect x="64" y="14739" width="32" height="17" class="color3"/><use xlink:href="#g25" y="14739"/><rect x="64" y="14756" width="32" height="17" class="color3"/><use xlink:href="#g26" y="14756"/><rect x="64" y="14773" width="32" height="17" class="color3"/><use xlink:href="#g27" y="14773"/><use xlink:href="#g28" y="14790"/><rect x="64" y="14807" width="32" height="17" class="color3"/><use xlink:href="#g29" y="14807"/><use xlink:href="#g30" y="14824"/><rect x="64" y="14841" width="32" height="17" class="color3"/><use xlink:href="#g31" y="14841"/><use xlink:href="#g28" y="14858"/><rect x="64" y="14875" width="32" height="17" class="color3"/><use xlink:href="#g32" y="14875"/><rect x="64" y="14892" width="32" height="17" class="color3"/><use xlink:href="#g33" y="14892"/><use xlink:href="#g30" y="14909"/><rect x="64" y="14926" width="32" height="17" class="color3"/><use xlink:href="#g34" y="14926"/><use xlink:href="#g28" y="14943"/><rect x="0" y="14960" width="24" height="17" class="color4"/><rect x="40" y="14960" width="8" height="17" class="foreground"/><use xlink:href="#g2" y="14960"/></g><g><rect x="0" y="15232" width="24" height="17" class="color4"/><use xlink:href="#g21" y="15232"/><rect x="64" y="15249" width="32" height="17" class="color3"/><use xlink:href="#g23" y="15249"/><use xlink:href="#g24" y="15266"/><rect x="64" y="15283" width="32" height="17" class="color3"/><use xlink:href="#g25" y="15283"/><rect x="64" y="15300" width="32" height="17" class="color3"/><use xlink:href="#g26" y="15300"/><rect x="64" y="15317" width="32" height="17" class="color3"/><use xlink:href="#g27" y="15317"/><use xlink:href="#g28" y="15334"/><rect x="64" y="15351" width="32" height="17" class="color3"/><use xlink:href="#g29" y="15351"/><use xlink:href="#g30" y="15368"/><rect x="64" y="15385" width="32" height="17" class="color3"/><use xlink:href="#g31" y="15385"/><use xlink:href="#g28" y="15402"/><rect x="64" y="15419" width="32" height="17" class="color3"/><use xlink:href="#g32" y="15419"/><rect x="64" y="15436" width="32" height="17" class="color3"/><use xlink:href="#g33" y="15436"/><use xlink:href="#g30" y="15453"/><rect x="64" y="15470" width="32" height="17" class="color3"/><use xlink:href="#g34" y="15470"/><use xlink:href="#g28" y="15487"/><rect x="0" y="15504" width="24" height="17" class="color4"/><use xlink:href="#g35" y="15504"/><rect x="0" y="15521" width="8" height="17" class="foreground"/><use xlink:href="#g22" y="15521"/></g></g></svg>
</svg>